<mxfile host="app.diagrams.net" modified="2023-05-30T16:53:28.821Z" agent="Mozilla/5.0 (X11; Linux x86_64; rv:113.0) Gecko/20100101 Firefox/113.0" etag="bsCr9_4-i7V10xzu7Mv4" version="21.3.5" type="device">
  <diagram name="Page-1" id="p8OQtnjDbmW6VjvcBKMb">
    <mxGraphModel dx="1434" dy="723" grid="1" gridSize="10" guides="1" tooltips="1" connect="1" arrows="1" fold="1" page="1" pageScale="1" pageWidth="850" pageHeight="1100" math="0" shadow="0">
      <root>
        <mxCell id="0" />
        <mxCell id="1" parent="0" />
        <mxCell id="Xl24A92PPWxfgRX4aBuu-5" value="alt" style="strokeColor=inherit;fillColor=inherit;gradientColor=inherit;html=1;shape=mxgraph.sysml.package;labelX=35;fontStyle=1;align=left;verticalAlign=top;spacingLeft=5;spacingTop=-3;" parent="1" vertex="1">
          <mxGeometry x="40" y="160" width="1160" height="290" as="geometry" />
        </mxCell>
        <mxCell id="jsgpZaHXFG1tdK8lM522-1" value="" style="shape=umlLifeline;perimeter=lifelinePerimeter;whiteSpace=wrap;html=1;container=1;dropTarget=0;collapsible=0;recursiveResize=0;outlineConnect=0;portConstraint=eastwest;newEdgeStyle={&quot;edgeStyle&quot;:&quot;elbowEdgeStyle&quot;,&quot;elbow&quot;:&quot;vertical&quot;,&quot;curved&quot;:0,&quot;rounded&quot;:0};participant=umlActor;" parent="1" vertex="1">
          <mxGeometry x="50" width="20" height="520" as="geometry" />
        </mxCell>
        <mxCell id="jsgpZaHXFG1tdK8lM522-2" value="&lt;div&gt;:Add Playlist&lt;/div&gt;&lt;div&gt;Interface&lt;/div&gt;" style="shape=umlLifeline;perimeter=lifelinePerimeter;whiteSpace=wrap;html=1;container=1;dropTarget=0;collapsible=0;recursiveResize=0;outlineConnect=0;portConstraint=eastwest;newEdgeStyle={&quot;edgeStyle&quot;:&quot;elbowEdgeStyle&quot;,&quot;elbow&quot;:&quot;vertical&quot;,&quot;curved&quot;:0,&quot;rounded&quot;:0};" parent="1" vertex="1">
          <mxGeometry x="230" width="100" height="520" as="geometry" />
        </mxCell>
        <mxCell id="jsgpZaHXFG1tdK8lM522-5" value="" style="html=1;points=[];perimeter=orthogonalPerimeter;outlineConnect=0;targetShapes=umlLifeline;portConstraint=eastwest;newEdgeStyle={&quot;edgeStyle&quot;:&quot;elbowEdgeStyle&quot;,&quot;elbow&quot;:&quot;vertical&quot;,&quot;curved&quot;:0,&quot;rounded&quot;:0};" parent="jsgpZaHXFG1tdK8lM522-2" vertex="1">
          <mxGeometry x="45" y="60" width="10" height="430" as="geometry" />
        </mxCell>
        <mxCell id="jsgpZaHXFG1tdK8lM522-3" value="&lt;div&gt;:Add Playlist&lt;/div&gt;&lt;div&gt;Control&lt;br&gt;&lt;/div&gt;" style="shape=umlLifeline;perimeter=lifelinePerimeter;whiteSpace=wrap;html=1;container=1;dropTarget=0;collapsible=0;recursiveResize=0;outlineConnect=0;portConstraint=eastwest;newEdgeStyle={&quot;edgeStyle&quot;:&quot;elbowEdgeStyle&quot;,&quot;elbow&quot;:&quot;vertical&quot;,&quot;curved&quot;:0,&quot;rounded&quot;:0};" parent="1" vertex="1">
          <mxGeometry x="470" width="100" height="520" as="geometry" />
        </mxCell>
        <mxCell id="jsgpZaHXFG1tdK8lM522-6" value="" style="html=1;points=[];perimeter=orthogonalPerimeter;outlineConnect=0;targetShapes=umlLifeline;portConstraint=eastwest;newEdgeStyle={&quot;edgeStyle&quot;:&quot;elbowEdgeStyle&quot;,&quot;elbow&quot;:&quot;vertical&quot;,&quot;curved&quot;:0,&quot;rounded&quot;:0};" parent="jsgpZaHXFG1tdK8lM522-3" vertex="1">
          <mxGeometry x="45" y="310" width="10" height="130" as="geometry" />
        </mxCell>
        <mxCell id="jsgpZaHXFG1tdK8lM522-4" value="&lt;div&gt;:Add Playlist&lt;/div&gt;&lt;div&gt;User Data&lt;/div&gt;" style="shape=umlLifeline;perimeter=lifelinePerimeter;whiteSpace=wrap;html=1;container=1;dropTarget=0;collapsible=0;recursiveResize=0;outlineConnect=0;portConstraint=eastwest;newEdgeStyle={&quot;edgeStyle&quot;:&quot;elbowEdgeStyle&quot;,&quot;elbow&quot;:&quot;vertical&quot;,&quot;curved&quot;:0,&quot;rounded&quot;:0};" parent="1" vertex="1">
          <mxGeometry x="1070" width="100" height="520" as="geometry" />
        </mxCell>
        <mxCell id="jsgpZaHXFG1tdK8lM522-7" value="" style="html=1;points=[];perimeter=orthogonalPerimeter;outlineConnect=0;targetShapes=umlLifeline;portConstraint=eastwest;newEdgeStyle={&quot;edgeStyle&quot;:&quot;elbowEdgeStyle&quot;,&quot;elbow&quot;:&quot;vertical&quot;,&quot;curved&quot;:0,&quot;rounded&quot;:0};" parent="jsgpZaHXFG1tdK8lM522-4" vertex="1">
          <mxGeometry x="45" y="380" width="10" height="60" as="geometry" />
        </mxCell>
        <mxCell id="jsgpZaHXFG1tdK8lM522-8" value="&lt;div&gt;click add playlist button&lt;/div&gt;" style="html=1;verticalAlign=bottom;endArrow=open;endSize=12;elbow=vertical;edgeStyle=elbowEdgeStyle;curved=0;rounded=0;" parent="1" source="jsgpZaHXFG1tdK8lM522-1" target="jsgpZaHXFG1tdK8lM522-5" edge="1">
          <mxGeometry width="80" relative="1" as="geometry">
            <mxPoint x="130" y="90" as="sourcePoint" />
            <mxPoint x="210" y="90" as="targetPoint" />
            <Array as="points">
              <mxPoint x="170" y="80" />
            </Array>
          </mxGeometry>
        </mxCell>
        <mxCell id="jsgpZaHXFG1tdK8lM522-9" value="show respective form" style="html=1;verticalAlign=bottom;endArrow=open;endSize=12;elbow=vertical;edgeStyle=elbowEdgeStyle;curved=0;rounded=0;" parent="1" source="jsgpZaHXFG1tdK8lM522-5" target="jsgpZaHXFG1tdK8lM522-1" edge="1">
          <mxGeometry width="80" relative="1" as="geometry">
            <mxPoint x="340" y="110" as="sourcePoint" />
            <mxPoint x="420" y="110" as="targetPoint" />
            <Array as="points">
              <mxPoint x="173" y="120" />
            </Array>
          </mxGeometry>
        </mxCell>
        <mxCell id="jsgpZaHXFG1tdK8lM522-10" value="&lt;div&gt;input playlist url&lt;/div&gt;&lt;div&gt;and submit form&lt;br&gt;&lt;/div&gt;" style="html=1;verticalAlign=bottom;endArrow=open;endSize=12;elbow=vertical;edgeStyle=elbowEdgeStyle;curved=0;rounded=0;" parent="1" source="jsgpZaHXFG1tdK8lM522-1" target="jsgpZaHXFG1tdK8lM522-5" edge="1">
          <mxGeometry width="80" relative="1" as="geometry">
            <mxPoint x="130" y="170" as="sourcePoint" />
            <mxPoint x="210" y="170" as="targetPoint" />
            <Array as="points">
              <mxPoint x="190" y="290" />
              <mxPoint x="173" y="180" />
            </Array>
          </mxGeometry>
        </mxCell>
        <mxCell id="Xl24A92PPWxfgRX4aBuu-15" value="[else]" style="edgeLabel;html=1;align=center;verticalAlign=middle;resizable=0;points=[];" parent="jsgpZaHXFG1tdK8lM522-10" vertex="1" connectable="0">
          <mxGeometry x="-0.6891" y="1" relative="1" as="geometry">
            <mxPoint x="-12" y="-9" as="offset" />
          </mxGeometry>
        </mxCell>
        <mxCell id="jsgpZaHXFG1tdK8lM522-11" value="dispatch" style="html=1;verticalAlign=bottom;endArrow=block;edgeStyle=elbowEdgeStyle;elbow=vertical;curved=0;rounded=0;" parent="1" source="jsgpZaHXFG1tdK8lM522-5" target="jsgpZaHXFG1tdK8lM522-6" edge="1">
          <mxGeometry width="80" relative="1" as="geometry">
            <mxPoint x="350" y="210" as="sourcePoint" />
            <mxPoint x="430" y="210" as="targetPoint" />
            <Array as="points">
              <mxPoint x="360" y="320" />
              <mxPoint x="460" y="260" />
              <mxPoint x="400" y="200" />
            </Array>
          </mxGeometry>
        </mxCell>
        <mxCell id="jsgpZaHXFG1tdK8lM522-13" value="store playlist" style="html=1;verticalAlign=bottom;endArrow=block;edgeStyle=elbowEdgeStyle;elbow=vertical;curved=0;rounded=0;" parent="1" source="jsgpZaHXFG1tdK8lM522-6" target="jsgpZaHXFG1tdK8lM522-7" edge="1">
          <mxGeometry width="80" relative="1" as="geometry">
            <mxPoint x="620" y="240" as="sourcePoint" />
            <mxPoint x="700" y="240" as="targetPoint" />
            <Array as="points">
              <mxPoint x="820" y="410" />
              <mxPoint x="820" y="390" />
              <mxPoint x="820" y="340" />
              <mxPoint x="1010" y="240" />
              <mxPoint x="640" y="220" />
            </Array>
          </mxGeometry>
        </mxCell>
        <mxCell id="Xl24A92PPWxfgRX4aBuu-9" value="" style="strokeColor=inherit;fillColor=inherit;gradientColor=inherit;endArrow=none;html=1;edgeStyle=none;dashed=1;rounded=0;entryX=0;entryY=0.25;entryDx=0;entryDy=0;entryPerimeter=0;exitX=1;exitY=0.25;exitDx=0;exitDy=0;exitPerimeter=0;" parent="1" source="Xl24A92PPWxfgRX4aBuu-5" target="Xl24A92PPWxfgRX4aBuu-5" edge="1">
          <mxGeometry relative="1" as="geometry">
            <mxPoint x="100" y="590" as="targetPoint" />
            <mxPoint x="300" y="590" as="sourcePoint" />
          </mxGeometry>
        </mxCell>
        <mxCell id="Xl24A92PPWxfgRX4aBuu-18" value="click cancel button" style="html=1;verticalAlign=bottom;endArrow=open;endSize=12;elbow=vertical;edgeStyle=elbowEdgeStyle;curved=0;rounded=0;" parent="1" source="jsgpZaHXFG1tdK8lM522-1" target="jsgpZaHXFG1tdK8lM522-5" edge="1">
          <mxGeometry width="80" relative="1" as="geometry">
            <mxPoint x="60" y="210" as="sourcePoint" />
            <mxPoint x="275" y="210" as="targetPoint" />
            <Array as="points">
              <mxPoint x="190" y="210" />
              <mxPoint x="173" y="100" />
            </Array>
          </mxGeometry>
        </mxCell>
        <mxCell id="Xl24A92PPWxfgRX4aBuu-19" value="[cancel]" style="edgeLabel;html=1;align=center;verticalAlign=middle;resizable=0;points=[];" parent="Xl24A92PPWxfgRX4aBuu-18" vertex="1" connectable="0">
          <mxGeometry x="-0.6891" y="1" relative="1" as="geometry">
            <mxPoint x="-12" y="-9" as="offset" />
          </mxGeometry>
        </mxCell>
        <mxCell id="Xl24A92PPWxfgRX4aBuu-20" value="create playlist object" style="html=1;verticalAlign=bottom;endArrow=block;edgeStyle=elbowEdgeStyle;elbow=vertical;curved=0;rounded=0;" parent="1" source="jsgpZaHXFG1tdK8lM522-6" edge="1">
          <mxGeometry width="80" relative="1" as="geometry">
            <mxPoint x="530" y="350" as="sourcePoint" />
            <mxPoint x="660" y="350" as="targetPoint" />
          </mxGeometry>
        </mxCell>
        <mxCell id="Xl24A92PPWxfgRX4aBuu-21" value="&lt;div&gt;:Add Playlist&lt;/div&gt;&lt;div&gt;Playlist Object&lt;br&gt;&lt;/div&gt;" style="shape=umlLifeline;perimeter=lifelinePerimeter;whiteSpace=wrap;html=1;container=1;dropTarget=0;collapsible=0;recursiveResize=0;outlineConnect=0;portConstraint=eastwest;newEdgeStyle={&quot;edgeStyle&quot;:&quot;elbowEdgeStyle&quot;,&quot;elbow&quot;:&quot;vertical&quot;,&quot;curved&quot;:0,&quot;rounded&quot;:0};" parent="1" vertex="1">
          <mxGeometry x="660" y="330" width="100" height="190" as="geometry" />
        </mxCell>
        <mxCell id="Xl24A92PPWxfgRX4aBuu-22" value="send confirmation" style="html=1;verticalAlign=bottom;endArrow=block;edgeStyle=elbowEdgeStyle;elbow=vertical;curved=0;rounded=0;" parent="1" source="jsgpZaHXFG1tdK8lM522-6" target="jsgpZaHXFG1tdK8lM522-5" edge="1">
          <mxGeometry width="80" relative="1" as="geometry">
            <mxPoint x="450" y="430" as="sourcePoint" />
            <mxPoint x="370" y="430" as="targetPoint" />
            <Array as="points">
              <mxPoint x="410" y="430" />
            </Array>
          </mxGeometry>
        </mxCell>
        <mxCell id="Xl24A92PPWxfgRX4aBuu-24" value="show confirmation" style="html=1;verticalAlign=bottom;endArrow=open;endSize=12;elbow=vertical;edgeStyle=elbowEdgeStyle;curved=0;rounded=0;" parent="1" source="jsgpZaHXFG1tdK8lM522-5" target="jsgpZaHXFG1tdK8lM522-1" edge="1">
          <mxGeometry width="80" relative="1" as="geometry">
            <mxPoint x="275" y="460" as="sourcePoint" />
            <mxPoint x="60" y="460" as="targetPoint" />
            <Array as="points">
              <mxPoint x="170" y="480" />
            </Array>
          </mxGeometry>
        </mxCell>
      </root>
    </mxGraphModel>
  </diagram>
</mxfile>
